<?xml version="1.0" encoding="utf-8"?>
<svg viewBox="0 0 500 500" xmlns="http://www.w3.org/2000/svg">
  <g transform="matrix(0.114286, 0, 0, -0.100975, 135.714005, 336.838501)" fill="#000000" stroke="none" style="">
    <path d="M647 1372 c-240 -240 -347 -354 -347 -369 0 -23 43 -63 68 -63 9 0 155 138 324 307 l308 308 308 -308 c169 -169 315 -307 324 -307 25 0 68 40 68 63 0 15 -107 129 -347 369 -191 191 -350 348 -353 348 -3 0 -162 -157 -353 -348z" style="fill: rgb(247, 47, 47);"/>
    <path d="M732 1237 l-262 -262 0 -303 0 -302 82 0 82 0 -36 -37 c-47 -50 -58 -73 -58 -123 0 -52 25 -105 61 -132 16 -12 33 -34 38 -50 9 -26 14 -28 60 -28 39 0 53 4 60 19 16 29 -6 88 -50 136 -21 23 -39 46 -39 51 0 4 16 25 36 45 19 20 41 54 49 75 l13 39 81 3 c45 2 81 0 81 -3 0 -4 -13 -17 -29 -31 -56 -47 -77 -134 -47 -192 8 -15 30 -43 50 -61 20 -19 36 -43 36 -52 0 -9 7 -20 16 -23 30 -11 91 -6 104 9 22 26 3 83 -46 135 -24 26 -44 51 -44 57 0 5 18 27 40 48 22 22 46 57 52 77 l11 38 86 0 85 0 -41 -42 c-79 -81 -82 -157 -10 -237 23 -25 47 -55 53 -66 14 -26 101 -29 117 -4 19 30 -2 87 -48 135 -25 25 -45 48 -45 51 0 3 20 28 45 54 25 27 48 62 51 79 l7 30 78 0 79 0 0 303 0 302 -263 263 c-144 144 -264 262 -267 262 -3 0 -123 -118 -268 -263z m30 -409 c29 -51 55 -96 56 -100 2 -4 -16 -8 -41 -8 -42 0 -45 -2 -51 -31 -3 -17 -22 -47 -41 -66 -20 -20 -40 -44 -45 -54 -13 -23 3 -64 29 -78 32 -17 61 -75 61 -120 0 -35 -7 -49 -50 -97 -60 -65 -59 -75 6 -146 55 -59 60 -98 14 -98 -18 0 -30 5 -30 13 0 7 -16 29 -36 48 -81 78 -84 140 -10 219 25 27 46 59 46 71 0 12 -17 37 -39 58 -85 80 -84 140 7 228 17 17 32 36 32 42 0 6 -19 11 -44 11 l-45 0 57 100 c31 55 60 100 64 100 3 0 30 -41 60 -92z m307 -8 c28 -49 51 -92 51 -94 0 -3 -19 -6 -42 -8 -37 -3 -43 -6 -50 -33 -4 -17 -26 -48 -48 -70 -53 -51 -53 -79 0 -130 22 -22 44 -54 49 -72 13 -48 -3 -93 -49 -138 -52 -51 -54 -85 -5 -129 34 -32 70 -98 58 -110 -14 -14 -53 -5 -63 15 -7 11 -29 38 -50 59 -66 66 -63 134 10 205 23 23 40 48 40 62 0 12 -20 45 -45 73 -25 28 -47 61 -51 75 -9 37 12 87 56 130 51 50 51 65 0 65 -22 0 -40 3 -40 6 0 16 112 194 119 189 5 -2 32 -45 60 -95z m303 0 l57 -100 -44 0 c-38 0 -44 -3 -50 -27 -3 -15 -26 -49 -51 -75 -55 -59 -56 -82 -5 -132 77 -76 79 -136 6 -211 -55 -56 -57 -80 -9 -126 38 -36 69 -93 59 -109 -10 -17 -55 -11 -62 8 -3 9 -26 38 -50 64 -36 40 -43 54 -43 88 0 50 12 75 56 117 48 45 45 74 -11 134 -41 44 -45 53 -45 99 0 46 4 55 45 99 25 26 45 53 45 59 0 6 -18 12 -40 14 l-40 3 56 98 c30 53 58 97 62 97 4 0 33 -45 64 -100z" style="fill: rgb(247, 47, 47);"/>
  </g>
</svg>