<?xml version="1.0" encoding="utf-8"?>
<svg viewBox="0 0 500 500" xmlns="http://www.w3.org/2000/svg">
  <g id="svgg" transform="matrix(0.651362, 0, 0, 0.663167, 120.179749, 123.364265)" style="">
    <path id="path0" d="M129.479 125.577 C 58.527 196.719,56.917 198.708,63.113 207.555 C 71.114 218.977,73.928 216.911,139.436 151.532 L 200.024 91.064 259.512 151.577 C 323.268 216.433,325.704 218.272,334.690 208.343 C 342.378 199.848,340.989 198.110,268.479 125.515 L 198.959 55.912 129.479 125.577 M146.486 154.514 L 94.000 207.028 94.000 266.514 L 94.000 326.000 199.000 326.000 L 304.000 326.000 304.000 266.486 L 304.000 206.972 251.486 154.486 L 198.972 102.000 146.486 154.514 M180.022 170.500 C 184.641 178.076,184.931 179.959,181.500 180.111 C 177.689 180.279,169.460 191.708,170.743 195.051 C 171.430 196.842,170.696 198.000,168.874 198.000 C 163.780 198.000,163.245 192.004,167.790 185.856 C 171.267 181.153,171.517 180.000,169.060 180.000 C 165.045 180.000,165.190 178.782,170.163 170.736 C 175.255 162.497,175.144 162.500,180.022 170.500 M205.334 172.016 C 209.170 179.084,209.285 180.010,206.334 180.085 C 202.561 180.180,193.362 193.349,195.101 196.164 C 195.725 197.174,194.805 198.000,193.055 198.000 C 187.857 198.000,187.146 192.167,191.747 187.269 C 196.780 181.912,197.099 180.000,192.959 180.000 C 190.412 180.000,190.581 178.702,194.000 172.000 C 199.059 162.084,199.943 162.086,205.334 172.016 M229.760 172.000 C 234.236 179.964,234.237 180.000,230.128 180.000 C 227.858 180.000,226.000 181.211,226.000 182.690 C 226.000 184.170,224.261 186.954,222.135 188.878 C 220.009 190.802,218.755 193.641,219.349 195.188 C 220.000 196.885,219.154 198.000,217.214 198.000 C 213.066 198.000,212.913 189.392,217.000 186.000 C 220.865 182.792,220.837 180.000,216.940 180.000 C 214.444 180.000,214.721 178.528,218.440 172.015 C 224.066 162.165,224.232 162.165,229.760 172.000 M276.000 208.000 C 276.000 209.298,249.333 210.000,200.000 210.000 C 150.667 210.000,124.000 209.298,124.000 208.000 C 124.000 206.702,150.667 206.000,200.000 206.000 C 249.333 206.000,276.000 206.702,276.000 208.000 M186.000 225.690 C 186.000 227.720,184.200 231.009,182.000 233.000 C 177.231 237.316,176.935 239.477,180.994 240.353 C 183.449 240.884,183.145 242.389,179.301 248.734 L 174.616 256.469 170.308 249.498 C 165.330 241.443,165.063 240.032,168.500 239.915 C 171.672 239.808,180.415 226.289,178.899 223.836 C 178.275 222.826,179.617 222.000,181.882 222.000 C 184.551 222.000,186.000 223.298,186.000 225.690 M210.000 225.690 C 210.000 227.720,208.200 231.009,206.000 233.000 C 201.232 237.315,200.864 240.000,205.041 240.000 C 207.588 240.000,207.419 241.298,204.000 248.000 C 201.755 252.400,199.505 256.000,199.000 256.000 C 196.572 256.000,190.064 239.995,192.459 239.915 C 195.015 239.830,204.000 227.332,204.000 223.861 C 204.000 222.838,205.350 222.000,207.000 222.000 C 208.650 222.000,210.000 223.661,210.000 225.690 M234.000 225.555 C 234.000 227.510,232.530 231.208,230.734 233.773 C 228.153 237.457,228.004 238.767,230.023 240.014 C 231.997 241.234,231.546 243.262,228.043 248.930 L 223.509 256.267 218.893 248.633 C 215.315 242.717,214.883 240.775,216.973 240.000 C 220.835 238.568,228.000 228.942,228.000 225.185 C 228.000 223.433,229.350 222.000,231.000 222.000 C 232.650 222.000,234.000 223.600,234.000 225.555 M117.464 238.000 C 121.535 242.755,124.000 243.132,124.000 239.000 C 124.000 237.350,124.399 236.000,124.886 236.000 C 126.126 236.000,140.000 244.261,140.000 245.000 C 140.000 245.739,126.126 254.000,124.886 254.000 C 124.399 254.000,124.000 252.802,124.000 251.338 C 124.000 249.874,121.750 247.472,119.000 246.000 C 116.250 244.528,114.000 242.576,114.000 241.662 C 114.000 240.748,112.200 240.000,110.000 240.000 C 107.778 240.000,106.000 238.667,106.000 237.000 C 106.000 232.658,113.446 233.307,117.464 238.000 M277.000 237.875 C 277.000 240.701,289.887 250.306,291.959 249.025 C 293.082 248.332,294.000 249.167,294.000 250.882 C 294.000 254.939,285.340 255.025,282.000 251.000 C 279.273 247.714,275.704 246.935,276.500 249.800 C 277.318 252.743,274.403 252.302,266.608 248.303 L 259.254 244.530 267.127 239.500 C 274.575 234.741,277.000 234.342,277.000 237.875 M117.000 262.000 C 121.316 266.769,123.477 267.065,124.353 263.006 C 124.884 260.551,126.389 260.855,132.734 264.699 L 140.469 269.384 133.498 273.692 C 125.233 278.800,124.000 278.970,124.000 275.000 C 124.000 273.350,122.789 272.000,121.310 272.000 C 119.830 272.000,116.962 270.168,114.936 267.929 C 112.910 265.691,110.071 264.312,108.626 264.867 C 107.006 265.488,106.000 264.366,106.000 261.937 C 106.000 256.740,112.272 256.775,117.000 262.000 M277.138 261.777 C 275.670 264.152,289.475 274.560,292.012 272.993 C 293.105 272.317,294.000 273.114,294.000 274.764 C 294.000 280.000,289.808 280.610,283.891 276.236 C 277.104 271.218,275.727 270.960,277.277 275.000 C 278.866 279.142,276.298 278.673,267.381 273.191 L 259.761 268.508 266.381 264.420 C 273.310 260.140,279.016 258.739,277.138 261.777 M118.179 287.216 C 121.158 290.806,124.000 290.781,124.000 287.166 C 124.000 284.972,125.801 285.310,131.984 288.666 C 141.738 293.961,141.781 294.410,132.932 298.630 C 124.312 302.740,124.000 302.753,124.000 299.000 C 124.000 297.350,122.789 296.000,121.310 296.000 C 119.830 296.000,116.962 294.168,114.936 291.929 C 112.910 289.691,110.071 288.312,108.626 288.867 C 106.061 289.851,104.900 285.766,107.116 283.551 C 108.819 281.848,115.584 284.089,118.179 287.216 M179.837 290.736 C 184.796 298.760,184.951 300.000,181.000 300.000 C 179.350 300.000,178.000 300.762,178.000 301.694 C 178.000 302.626,176.170 305.498,173.933 308.077 C 171.696 310.656,170.318 313.944,170.870 315.383 C 171.488 316.993,170.359 318.000,167.937 318.000 C 162.740 318.000,162.775 311.728,168.000 307.000 C 172.768 302.685,173.136 300.000,168.959 300.000 C 166.412 300.000,166.581 298.702,170.000 292.000 C 174.928 282.341,174.669 282.374,179.837 290.736 M205.334 292.016 C 209.511 299.711,209.529 300.000,205.834 300.000 C 203.725 300.000,202.000 301.211,202.000 302.690 C 202.000 304.170,200.168 307.038,197.929 309.064 C 195.691 311.090,194.312 313.929,194.867 315.374 C 196.080 318.537,190.805 318.921,188.882 315.810 C 188.138 314.605,189.435 311.042,191.764 307.891 C 196.811 301.065,196.970 300.000,192.940 300.000 C 190.444 300.000,190.721 298.528,194.440 292.015 C 200.041 282.208,200.009 282.208,205.334 292.016 M229.334 292.016 C 233.511 299.711,233.529 300.000,229.834 300.000 C 227.725 300.000,226.000 301.211,226.000 302.690 C 226.000 304.170,224.261 306.954,222.135 308.878 C 220.009 310.802,218.755 313.641,219.349 315.188 C 220.000 316.885,219.154 318.000,217.214 318.000 C 213.066 318.000,212.913 309.392,217.000 306.000 C 220.865 302.792,220.837 300.000,216.940 300.000 C 214.444 300.000,214.721 298.528,218.440 292.015 C 224.041 282.208,224.009 282.208,229.334 292.016 M277.523 286.431 C 276.731 288.808,288.304 298.000,292.089 298.000 C 293.140 298.000,294.000 299.350,294.000 301.000 C 294.000 305.310,287.250 304.696,283.000 300.000 C 278.743 295.296,275.078 294.712,276.723 299.000 C 278.221 302.903,277.409 302.800,267.727 297.860 C 259.056 293.437,259.051 293.235,267.485 287.828 C 273.987 283.660,278.664 283.009,277.523 286.431 " stroke="none" fill-rule="evenodd" style="fill: rgb(247, 47, 47);"/>
  </g>
</svg>