<?xml version="1.0" encoding="utf-8"?>
<svg viewBox="0 0 500 500" xmlns="http://www.w3.org/2000/svg">
  <g transform="matrix(0.109189, 0, 0, -0.119403, 142.175858, 374.179108)" fill="#000000" stroke="none" style="">
    <path d="M648 1367 c-219 -217 -348 -351 -348 -363 0 -35 29 -64 63 -64 28 0 64 32 334 302 l303 303 303 -303 c264 -264 306 -302 333 -302 38 0 54 16 54 55 0 26 -42 72 -343 373 -188 188 -344 342 -347 342 -3 0 -161 -155 -352 -343z" style="fill: rgb(247, 47, 47);"/>
    <path d="M732 1227 l-262 -262 0 -94 c0 -85 2 -92 18 -85 9 4 36 9 58 12 49 5 89 -13 135 -62 18 -19 42 -36 53 -38 19 -3 21 -10 21 -63 l0 -60 -34 -3 c-44 -4 -81 12 -122 54 -18 19 -38 34 -45 34 -7 0 -28 -16 -48 -36 l-36 -36 0 -109 0 -109 530 0 530 0 0 104 0 105 34 -6 c60 -9 100 5 151 52 39 38 50 43 66 34 11 -6 23 -17 26 -25 10 -26 89 -66 125 -62 33 3 33 3 33 58 0 47 -3 56 -23 66 -13 7 -40 28 -60 47 -72 69 -159 68 -237 -4 -23 -21 -47 -39 -52 -39 -5 0 -21 13 -36 28 -26 27 -27 33 -27 133 l0 104 -263 263 c-144 144 -264 262 -267 262 -3 0 -123 -118 -268 -263z m421 -372 l37 -54 -2 -173 -3 -173 -185 0 -185 0 -3 175 -2 174 36 53 36 53 117 0 116 0 38 -55z m277 -50 c0 -39 3 -45 20 -45 12 0 43 -21 70 -46 32 -30 59 -46 75 -46 16 0 43 16 75 46 44 41 54 46 95 46 40 0 52 -5 93 -43 26 -24 55 -47 65 -50 19 -7 25 -67 7 -67 -26 0 -78 31 -109 64 -19 20 -44 36 -56 36 -11 0 -38 -18 -60 -40 -74 -75 -146 -76 -220 0 -21 22 -43 40 -47 40 -4 0 -8 -18 -8 -40 0 -22 -4 -40 -9 -40 -12 0 -203 111 -199 115 10 9 194 115 201 115 4 0 7 -20 7 -45z" style="fill: rgb(247, 47, 47);"/>
    <path d="M871 828 l-31 -42 0 -148 0 -148 155 0 155 0 0 152 c0 148 -1 153 -26 190 l-27 38 -97 0 -98 0 -31 -42z" style="fill: rgb(247, 47, 47);"/>
    <path d="M108 792 l-98 -56 43 -26 c23 -15 68 -41 99 -59 l58 -32 0 40 c0 54 17 53 76 -4 41 -41 49 -45 95 -45 45 0 54 4 98 45 58 55 89 58 132 15 64 -64 109 -79 109 -37 -1 14 -22 40 -61 75 -53 46 -65 52 -104 52 -40 0 -51 -6 -100 -50 -30 -27 -62 -50 -70 -50 -8 0 -37 20 -65 45 -29 25 -65 48 -80 52 -26 5 -29 10 -32 48 l-3 43 -97 -56z" style="fill: rgb(247, 47, 47);"/>
  </g>
</svg>