<?xml version="1.0" encoding="utf-8"?>
<svg viewBox="0 0 500 500" xmlns="http://www.w3.org/2000/svg">
  <g transform="matrix(0.1, 0, 0, -0.1, 149.76152, 352.955811)" fill="#000000" stroke="none">
    <path d="M1335 1816 c-213 -52 -356 -273 -312 -481 l15 -70 -56 -58 -57 -57 -135 136 -135 135 39 35 40 35 -78 78 c-43 43 -124 111 -181 149 l-102 71 -78 -79 c-53 -54 -75 -82 -69 -91 26 -46 172 -224 227 -278 l65 -63 41 38 42 38 132 -132 132 -132 -335 -335 -335 -335 95 -95 95 -95 335 335 335 335 82 -82 82 -83 -19 -35 c-11 -19 -19 -44 -20 -55 0 -14 68 -88 199 -218 185 -185 200 -198 227 -192 71 16 160 105 171 169 l6 38 -194 194 c-207 207 -210 209 -276 177 l-35 -16 -81 81 -82 82 55 55 55 54 54 -15 c38 -12 79 -15 137 -12 184 10 332 132 379 315 16 60 19 130 9 158 -5 13 -37 -14 -145 -121 l-139 -139 -142 143 -143 142 139 139 c107 108 134 140 121 145 -25 9 -104 6 -160 -8z" style="fill: rgb(247, 47, 47);"/>
  </g>
</svg>